:SAMPLES-PER-SECOND 30
:FULLY-SPECIFIED
:DEGREES
16
root  62.601 39.1288 -2.48035 -169.339 -81.0243 165.204
RightUpLeg  -20.7728 -7.732 -9.64787
RightLeg  49.3432 -3.60841 -4.82999
RightFoot  2.54075 -0.961295 8.00082
RightToes  -1.74624e-010 0 -3.6325e-017
Spine  11.6116 1.45872 1.87522
Spine1  8.40291 2.69882 -5.01666
HEad  -0.455482 3.1723 -1.23255
LeftShoulder1  3.67775 -6.14488 -32.0242
LeftArm  -28.9155 10.65 -11.5181
LeftForeArm  20.7895 -16.4093 -1.3682
LeftHand  -0.244104 0.0205437 5.32207
RightShoulder  2.60723 4.64213 25.9298
RightArm  -26.8637 -11.8562 13.5946
RightForeArm  10.8183 35.2679 7.30693
RightHand  -3.87783 12.2702 -25.4149
LeftUpLeg  6.77454 9.90472 -0.675615
LeftLeg  15.4139 14.0325 0.0405623
LeftFoot  -21.4502 -0.389903 -5.86026
LeftToes  8.00323e-011 -1.37366e-010 4.43692e-012
17
root  62.027 39.0707 -2.39814 -170.143 -81.1247 166.203
RightUpLeg  -23.8195 -10.1831 -8.17129
RightLeg  49.3205 -3.6834 -4.92651
RightFoot  1.50528 -0.848203 7.62704
RightToes  -1.74624e-010 0 -3.6325e-017
Spine  11.7604 0.998516 2.05318
Spine1  9.03707 2.31636 -5.07685
HEad  -0.991601 2.66432 -0.76256
LeftShoulder1  4.52068 -7.4683 -35.0998
LeftArm  -27.0777 8.81113 -13.9698
LeftForeArm  22.147 -16.2102 -1.6675
LeftHand  -0.244104 0.0205437 5.32207
RightShoulder  2.9962 5.31777 27.9556
RightArm  -22.0405 -13.3421 17.1333
RightForeArm  15.0724 36.2417 7.32053
RightHand  -3.19929 10.6763 -23.1338
LeftUpLeg  7.70962 9.64091 -0.669772
LeftLeg  14.9617 14.4099 -0.112532
LeftFoot  -21.6501 -0.341812 -5.22588
LeftToes  8.00323e-011 -1.37366e-010 4.43692e-012
18
root  61.3913 38.9961 -2.37077 -171.26 -81.3232 167.649
RightUpLeg  -26.1087 -12.4971 -6.22858
RightLeg  45.9444 -4.4352 -5.19681
RightFoot  -0.141055 -0.805694 8.19228
RightToes  -1.74624e-010 0 -3.6325e-017
Spine  12.3595 0.575396 2.03023
Spine1  8.89342 1.8767 -4.98114
HEad  -1.71095 2.95282 -0.59317
LeftShoulder1  5.38569 -8.67768 -38.0361
LeftArm  -24.3721 6.28332 -16.5878
LeftForeArm  24.1093 -16.1343 -2.15356
LeftHand  -0.244104 0.0205437 5.32207
RightShoulder  3.28457 5.713 29.6641
RightArm  -17.0065 -14.7066 21.4372
RightForeArm  17.1631 35.0501 6.87064
RightHand  -2.48756 8.82055 -20.4517
LeftUpLeg  8.50005 9.22921 -0.539673
LeftLeg  14.6759 14.6681 -0.195412
LeftFoot  -21.9408 -0.330283 -4.97365
LeftToes  8.00323e-011 -1.37366e-010 4.43692e-012
19
root  60.6913 38.8793 -2.40553 -171.56 -81.5404 168.262
RightUpLeg  -27.7551 -14.1511 -4.21844
RightLeg  40.3763 -5.69489 -5.43916
RightFoot  -1.58709 -0.704157 8.10022
RightToes  -1.74624e-010 0 -3.6325e-017
Spine  13.3639 0.194677 1.52636
Spine1  8.35833 1.34337 -4.56743
HEad  -2.86595 3.08653 -0.38322
LeftShoulder1  6.17472 -9.69558 -40.4931
LeftArm  -19.9637 3.19096 -19.403
LeftForeArm  26.3566 -16.4916 -2.89937
LeftHand  -0.244104 0.0205437 5.32207
RightShoulder  3.5406 5.98943 31.3443
RightArm  -12.7261 -15.7064 26.0686
RightForeArm  19.6224 31.8325 5.89401
RightHand  -2.04669 7.78051 -18.2396
LeftUpLeg  9.31524 9.0952 -0.3502
LeftLeg  14.6285 14.5342 -0.262673
LeftFoot  -22.4588 -0.376171 -5.2468
LeftToes  8.00323e-011 -1.37366e-010 4.43692e-012
20
root  59.8929 38.7284 -2.49039 -170.48 -81.9695 167.486
RightUpLeg  -28.7579 -15.3451 -2.48387
RightLeg  33.5362 -6.64124 -4.96874
RightFoot  -2.49901 -0.581188 7.29002
RightToes  -1.74624e-010 0 -3.6325e-017
Spine  14.3121 -0.165907 0.689173
Spine1  8.04253 0.680598 -3.6861
HEad  -4.43205 3.27404 -0.396632
LeftShoulder1  6.77877 -10.5143 -41.9749
LeftArm  -13.2609 -0.36169 -22.9849
LeftForeArm  29.1314 -17.5557 -3.60885
LeftHand  -0.244104 0.0205437 5.32207
RightShoulder  3.78014 6.26266 32.7593
RightArm  -10.2925 -17.0473 30.8459
RightForeArm  22.7942 28.0323 4.80897
RightHand  -1.88839 7.51007 -17.2059
LeftUpLeg  10.3178 9.18602 -0.178466
LeftLeg  14.5732 14.2667 -0.329808
LeftFoot  -22.845 -0.364255 -4.97632
LeftToes  8.00323e-011 -1.37366e-010 4.43692e-012
21
root  58.9573 38.5458 -2.61407 -168.253 -82.7445 165.499
RightUpLeg  -29.1797 -16.5025 -1.18884
RightLeg  26.5385 -6.64343 -3.8261
RightFoot  -2.84602 -0.534906 6.93337
RightToes  -1.74624e-010 0 -3.6325e-017
Spine  15.0383 -0.567367 -0.30769
Spine1  8.11303 -0.196849 -2.28936
HEad  -6.32932 3.67569 -0.842736
LeftShoulder1  7.20173 -11.1246 -42.7858
LeftArm  -4.69625 -4.19604 -27.2475
LeftForeArm  32.3719 -19.5623 -3.74488
LeftHand  -0.244104 0.0205437 5.32207
RightShoulder  3.9896 6.59408 33.5617
RightArm  -10.3235 -19.1437 35.7049
RightForeArm  24.4374 24.544 3.97553
RightHand  -1.92848 7.69375 -17.3132
LeftUpLeg  11.6757 9.07129 0.01418
LeftLeg  14.3633 13.9046 -0.457719
LeftFoot  -23.1916 -0.293583 -4.16982
LeftToes  8.00323e-011 -1.37366e-010 4.43692e-012
22
root  57.876 38.3296 -2.78079 -164.826 -83.8628 162.151
RightUpLeg  -29.1811 -17.6563 -0.37953
RightLeg  20.7858 -5.67995 -2.59404
RightFoot  -3.26979 -0.552765 7.5173
RightToes  -1.74624e-010 0 -3.6325e-017
Spine  15.7438 -1.09203 -1.5361
Spine1  8.32164 -1.41731 -0.323997
HEad  -8.48361 4.47832 -1.7236
LeftShoulder1  7.50554 -11.4834 -43.5693
LeftArm  3.37325 -7.98904 -31.523
LeftForeArm  35.6424 -22.2814 -3.3286
LeftHand  -0.244104 0.0205437 5.32207
RightShoulder  4.17679 6.98886 33.8576
RightArm  -11.9811 -21.3412 40.0673
RightForeArm  23.5283 20.7852 3.58324
RightHand  -2.10113 8.56851 -17.6861
LeftUpLeg  13.4942 8.76263 0.48654
LeftLeg  14.0306 12.8142 -0.777252
LeftFoot  -23.8086 -0.32851 -4.30519
LeftToes  8.00323e-011 -1.37366e-010 4.43692e-012
23
root  56.6689 38.1015 -3.00337 -159.2 -85.2719 156.617
RightUpLeg  -29.0156 -18.36 -0.0191159
RightLeg  17.3248 -4.25097 -1.65916
RightFoot  -3.92712 -0.555133 8.11574
RightToes  -1.74624e-010 0 -3.6325e-017
Spine  16.4026 -1.72802 -2.91466
Spine1  8.47403 -2.93534 2.11164
HEad  -10.5702 5.54507 -2.66601
LeftShoulder1  7.6712 -11.5913 -44.2474
LeftArm  8.2987 -11.4 -35.6341
LeftForeArm  38.9523 -24.9811 -3.27801
LeftHand  -0.244104 0.0205437 5.32207
RightShoulder  4.33733 7.34697 34.0224
RightArm  -13.7875 -23.1019 42.9968
RightForeArm  22.8214 16.7114 3.85293
RightHand  -2.18546 9.46 -17.3068
LeftUpLeg  15.4458 8.83603 1.5097
LeftLeg  13.8501 10.6935 -1.11376
LeftFoot  -24.2533 -0.487663 -5.5957
LeftToes  8.00323e-011 -1.37366e-010 4.43692e-012
